<?xml version="1.0" encoding="UTF-8"?>
      <mxfile host="codeviz.app" modified="2025-02-12T19:22:10.516Z" agent="CodeViz Exporter" version="14.6.5" type="device">
        <diagram id="codeviz-diagram" name="System Diagram">
          <mxGraphModel dx="1000" dy="1000" grid="1" gridSize="10" guides="1" tooltips="1" connect="1" arrows="1" fold="1" page="1" pageScale="1" pageWidth="1169" pageHeight="827" math="0" shadow="0">
            <root>
              <mxCell id="0"/>
              <mxCell id="1" parent="0"/>
              <mxCell id="subGraph2" value="" style="html=1;whiteSpace=wrap;container=1;fillColor=#dae8fc;strokeColor=#6c8ebf;dashed=1;fillOpacity=20;strokeWidth=2;containerType=none;recursiveResize=0;movable=1;resizable=1;autosize=0;dropTarget=0" vertex="1" parent="subGraph3">
                <mxGeometry x="80" y="90" width="1360" height="220" as="geometry"/>
              </mxCell>
              <mxCell id="subGraph2_label" value="Page Components" style="edgeLabel;html=1;align=center;verticalAlign=middle;resizable=0;labelBackgroundColor=white;spacing=5" vertex="1" parent="subGraph3">
                <mxGeometry x="88" y="98" width="1284" height="24" as="geometry"/>
              </mxCell>
<mxCell id="subGraph1" value="" style="html=1;whiteSpace=wrap;container=1;fillColor=#dae8fc;strokeColor=#6c8ebf;dashed=1;fillOpacity=20;strokeWidth=2;containerType=none;recursiveResize=0;movable=1;resizable=1;autosize=0;dropTarget=0" vertex="1" parent="subGraph3">
                <mxGeometry x="372" y="1060" width="1080" height="220" as="geometry"/>
              </mxCell>
              <mxCell id="subGraph1_label" value="UI Components" style="edgeLabel;html=1;align=center;verticalAlign=middle;resizable=0;labelBackgroundColor=white;spacing=5" vertex="1" parent="subGraph3">
                <mxGeometry x="380" y="1068" width="1004" height="24" as="geometry"/>
              </mxCell>
<mxCell id="subGraph0" value="" style="html=1;whiteSpace=wrap;container=1;fillColor=#dae8fc;strokeColor=#6c8ebf;dashed=1;fillOpacity=20;strokeWidth=2;containerType=none;recursiveResize=0;movable=1;resizable=1;autosize=0;dropTarget=0" vertex="1" parent="subGraph3">
                <mxGeometry x="928" y="620" width="660" height="320" as="geometry"/>
              </mxCell>
              <mxCell id="subGraph0_label" value="Core Components" style="edgeLabel;html=1;align=center;verticalAlign=middle;resizable=0;labelBackgroundColor=white;spacing=5" vertex="1" parent="subGraph3">
                <mxGeometry x="936" y="628" width="584" height="24" as="geometry"/>
              </mxCell>
<mxCell id="subGraph4" value="" style="html=1;whiteSpace=wrap;container=1;fillColor=#dae8fc;strokeColor=#6c8ebf;dashed=1;fillOpacity=20;strokeWidth=2;containerType=none;recursiveResize=0;movable=1;resizable=1;autosize=0;dropTarget=0" vertex="1" parent="1">
                <mxGeometry x="1470" y="1567" width="240" height="320" as="geometry"/>
              </mxCell>
              <mxCell id="subGraph4_label" value="Authentication Container" style="edgeLabel;html=1;align=center;verticalAlign=middle;resizable=0;labelBackgroundColor=white;spacing=5" vertex="1" parent="1">
                <mxGeometry x="1478" y="1575" width="164" height="24" as="geometry"/>
              </mxCell>
<mxCell id="subGraph3" value="" style="html=1;whiteSpace=wrap;container=1;fillColor=#dae8fc;strokeColor=#6c8ebf;dashed=1;fillOpacity=20;strokeWidth=2;containerType=none;recursiveResize=0;movable=1;resizable=1;autosize=0;dropTarget=0" vertex="1" parent="1">
                <mxGeometry x="62" y="197" width="1612" height="1290" as="geometry"/>
              </mxCell>
              <mxCell id="subGraph3_label" value="Frontend Container" style="edgeLabel;html=1;align=center;verticalAlign=middle;resizable=0;labelBackgroundColor=white;spacing=5" vertex="1" parent="1">
                <mxGeometry x="70" y="205" width="1536" height="24" as="geometry"/>
              </mxCell>
              <mxCell id="User" value="User" style="rounded=1;whiteSpace=wrap;html=1;fillColor=#f5f5f5" vertex="1" parent="1">
                    <mxGeometry x="1464" y="12" width="120" height="60" as="geometry"/>
                  </mxCell>
<mxCell id="NextApp" value="Next.js Application&lt;br&gt;Next.js 14" style="rounded=1;whiteSpace=wrap;html=1;fillColor=#f5f5f5" vertex="1" parent="subGraph3">
                    <mxGeometry x="1452" y="369" width="120" height="60" as="geometry"/>
                  </mxCell>
<mxCell id="AuthProvider" value="Auth Provider&lt;br&gt;React Context" style="rounded=1;whiteSpace=wrap;html=1;fillColor=#f5f5f5" vertex="1" parent="subGraph0">
                    <mxGeometry x="180" y="120" width="120" height="60" as="geometry"/>
                  </mxCell>
<mxCell id="ThemeProvider" value="Theme Provider&lt;br&gt;Tailwind CSS" style="rounded=1;whiteSpace=wrap;html=1;fillColor=#f5f5f5" vertex="1" parent="subGraph0">
                    <mxGeometry x="320" y="120" width="120" height="60" as="geometry"/>
                  </mxCell>
<mxCell id="ClientLayout" value="Client Layout&lt;br&gt;React" style="rounded=1;whiteSpace=wrap;html=1;fillColor=#f5f5f5" vertex="1" parent="subGraph0">
                    <mxGeometry x="460" y="120" width="120" height="60" as="geometry"/>
                  </mxCell>
<mxCell id="MainNav" value="Main Navigation&lt;br&gt;React" style="rounded=1;whiteSpace=wrap;html=1;fillColor=#f5f5f5" vertex="1" parent="subGraph0">
                    <mxGeometry x="440" y="220" width="120" height="60" as="geometry"/>
                  </mxCell>
<mxCell id="DataTable" value="Data Table&lt;br&gt;TanStack Table" style="rounded=1;whiteSpace=wrap;html=1;fillColor=#f5f5f5" vertex="1" parent="subGraph0">
                    <mxGeometry x="40" y="120" width="120" height="60" as="geometry"/>
                  </mxCell>
<mxCell id="Forms" value="Form System&lt;br&gt;React Hook Form" style="rounded=1;whiteSpace=wrap;html=1;fillColor=#f5f5f5" vertex="1" parent="subGraph1">
                    <mxGeometry x="320" y="120" width="120" height="60" as="geometry"/>
                  </mxCell>
<mxCell id="Table" value="Table Component&lt;br&gt;React" style="rounded=1;whiteSpace=wrap;html=1;fillColor=#f5f5f5" vertex="1" parent="subGraph1">
                    <mxGeometry x="460" y="120" width="120" height="60" as="geometry"/>
                  </mxCell>
<mxCell id="Button" value="Button Component&lt;br&gt;React" style="rounded=1;whiteSpace=wrap;html=1;fillColor=#f5f5f5" vertex="1" parent="subGraph1">
                    <mxGeometry x="740" y="120" width="120" height="60" as="geometry"/>
                  </mxCell>
<mxCell id="Input" value="Input Component&lt;br&gt;React" style="rounded=1;whiteSpace=wrap;html=1;fillColor=#f5f5f5" vertex="1" parent="subGraph1">
                    <mxGeometry x="600" y="120" width="120" height="60" as="geometry"/>
                  </mxCell>
<mxCell id="Sidebar" value="Sidebar Component&lt;br&gt;React" style="rounded=1;whiteSpace=wrap;html=1;fillColor=#f5f5f5" vertex="1" parent="subGraph1">
                    <mxGeometry x="880" y="120" width="120" height="60" as="geometry"/>
                  </mxCell>
<mxCell id="DateRangePicker" value="Date Range Picker&lt;br&gt;React" style="rounded=1;whiteSpace=wrap;html=1;fillColor=#f5f5f5" vertex="1" parent="subGraph1">
                    <mxGeometry x="40" y="120" width="120" height="60" as="geometry"/>
                  </mxCell>
<mxCell id="SummaryCard" value="Summary Card&lt;br&gt;React" style="rounded=1;whiteSpace=wrap;html=1;fillColor=#f5f5f5" vertex="1" parent="subGraph1">
                    <mxGeometry x="180" y="120" width="120" height="60" as="geometry"/>
                  </mxCell>
<mxCell id="SalesReport" value="Sales Report&lt;br&gt;Next.js Page" style="rounded=1;whiteSpace=wrap;html=1;fillColor=#f5f5f5" vertex="1" parent="subGraph2">
                    <mxGeometry x="1190" y="120" width="120" height="60" as="geometry"/>
                  </mxCell>
<mxCell id="SalesReturns" value="Sales Returns&lt;br&gt;Next.js Page" style="rounded=1;whiteSpace=wrap;html=1;fillColor=#f5f5f5" vertex="1" parent="subGraph2">
                    <mxGeometry x="1050" y="120" width="120" height="60" as="geometry"/>
                  </mxCell>
<mxCell id="Purchases" value="Purchases&lt;br&gt;Next.js Page" style="rounded=1;whiteSpace=wrap;html=1;fillColor=#f5f5f5" vertex="1" parent="subGraph2">
                    <mxGeometry x="910" y="120" width="120" height="60" as="geometry"/>
                  </mxCell>
<mxCell id="PurchaseReturns" value="Purchase Returns&lt;br&gt;Next.js Page" style="rounded=1;whiteSpace=wrap;html=1;fillColor=#f5f5f5" vertex="1" parent="subGraph2">
                    <mxGeometry x="350" y="120" width="120" height="60" as="geometry"/>
                  </mxCell>
<mxCell id="Inventory" value="Inventory&lt;br&gt;Next.js Page" style="rounded=1;whiteSpace=wrap;html=1;fillColor=#f5f5f5" vertex="1" parent="subGraph2">
                    <mxGeometry x="210" y="120" width="120" height="60" as="geometry"/>
                  </mxCell>
<mxCell id="Kardex" value="Kardex&lt;br&gt;Next.js Page" style="rounded=1;whiteSpace=wrap;html=1;fillColor=#f5f5f5" vertex="1" parent="subGraph2">
                    <mxGeometry x="490" y="120" width="120" height="60" as="geometry"/>
                  </mxCell>
<mxCell id="Adjustments" value="Adjustments&lt;br&gt;Next.js Page" style="rounded=1;whiteSpace=wrap;html=1;fillColor=#f5f5f5" vertex="1" parent="subGraph2">
                    <mxGeometry x="70" y="120" width="120" height="60" as="geometry"/>
                  </mxCell>
<mxCell id="Billing" value="Billing&lt;br&gt;Next.js Page" style="rounded=1;whiteSpace=wrap;html=1;fillColor=#f5f5f5" vertex="1" parent="subGraph2">
                    <mxGeometry x="770" y="120" width="120" height="60" as="geometry"/>
                  </mxCell>
<mxCell id="Comparative" value="Comparative Reports&lt;br&gt;Next.js Page" style="rounded=1;whiteSpace=wrap;html=1;fillColor=#f5f5f5" vertex="1" parent="subGraph2">
                    <mxGeometry x="630" y="120" width="120" height="60" as="geometry"/>
                  </mxCell>
<mxCell id="AuthSystem" value="Authentication System&lt;br&gt;Custom Auth" style="rounded=1;whiteSpace=wrap;html=1;fillColor=#f5f5f5" vertex="1" parent="subGraph4">
                    <mxGeometry x="40" y="120" width="120" height="60" as="geometry"/>
                  </mxCell>
<mxCell id="LoginPage" value="Login Page&lt;br&gt;Next.js Page" style="rounded=1;whiteSpace=wrap;html=1;fillColor=#f5f5f5" vertex="1" parent="subGraph4">
                    <mxGeometry x="40" y="220" width="120" height="60" as="geometry"/>
                  </mxCell>
              <mxCell id="edge-L_User_NextApp_0" style="edgeStyle=orthogonalEdgeStyle;rounded=1;orthogonalLoop=1;jettySize=auto;html=1;strokeColor=#808080;strokeWidth=2;jumpStyle=arc;jumpSize=10;spacing=15;labelBackgroundColor=white;labelBorderColor=none" edge="1" parent="1" source="User" target="NextApp">
                  <mxGeometry relative="1" as="geometry"/>
                </mxCell>
                <mxCell id="edge-L_User_NextApp_0_label" value="Accesses" style="edgeLabel;html=1;align=center;verticalAlign=middle;resizable=0;points=[];" vertex="1" connectable="0" parent="edge-L_User_NextApp_0">
                  <mxGeometry x="-0.2" y="10" relative="1" as="geometry">
                    <mxPoint as="offset"/>
                  </mxGeometry>
                </mxCell>
<mxCell id="edge-L_NextApp_AuthSystem_1" style="edgeStyle=orthogonalEdgeStyle;rounded=1;orthogonalLoop=1;jettySize=auto;html=1;strokeColor=#808080;strokeWidth=2;jumpStyle=arc;jumpSize=10;spacing=15;labelBackgroundColor=white;labelBorderColor=none" edge="1" parent="1" source="NextApp" target="AuthSystem">
                  <mxGeometry relative="1" as="geometry"/>
                </mxCell>
                <mxCell id="edge-L_NextApp_AuthSystem_1_label" value="Uses" style="edgeLabel;html=1;align=center;verticalAlign=middle;resizable=0;points=[];" vertex="1" connectable="0" parent="edge-L_NextApp_AuthSystem_1">
                  <mxGeometry x="-0.2" y="10" relative="1" as="geometry">
                    <mxPoint as="offset"/>
                  </mxGeometry>
                </mxCell>
<mxCell id="edge-L_AuthSystem_LoginPage_2" style="edgeStyle=orthogonalEdgeStyle;rounded=1;orthogonalLoop=1;jettySize=auto;html=1;strokeColor=#808080;strokeWidth=2;jumpStyle=arc;jumpSize=10;spacing=15;labelBackgroundColor=white;labelBorderColor=none" edge="1" parent="1" source="AuthSystem" target="LoginPage">
                  <mxGeometry relative="1" as="geometry"/>
                </mxCell>
                <mxCell id="edge-L_AuthSystem_LoginPage_2_label" value="Renders" style="edgeLabel;html=1;align=center;verticalAlign=middle;resizable=0;points=[];" vertex="1" connectable="0" parent="edge-L_AuthSystem_LoginPage_2">
                  <mxGeometry x="-0.2" y="10" relative="1" as="geometry">
                    <mxPoint as="offset"/>
                  </mxGeometry>
                </mxCell>
<mxCell id="edge-L_NextApp_AuthProvider_3" style="edgeStyle=orthogonalEdgeStyle;rounded=1;orthogonalLoop=1;jettySize=auto;html=1;strokeColor=#808080;strokeWidth=2;jumpStyle=arc;jumpSize=10;spacing=15;labelBackgroundColor=white;labelBorderColor=none" edge="1" parent="1" source="NextApp" target="AuthProvider">
                  <mxGeometry relative="1" as="geometry"/>
                </mxCell>
                <mxCell id="edge-L_NextApp_AuthProvider_3_label" value="Manages State" style="edgeLabel;html=1;align=center;verticalAlign=middle;resizable=0;points=[];" vertex="1" connectable="0" parent="edge-L_NextApp_AuthProvider_3">
                  <mxGeometry x="-0.2" y="10" relative="1" as="geometry">
                    <mxPoint as="offset"/>
                  </mxGeometry>
                </mxCell>
<mxCell id="edge-L_NextApp_ThemeProvider_4" style="edgeStyle=orthogonalEdgeStyle;rounded=1;orthogonalLoop=1;jettySize=auto;html=1;strokeColor=#808080;strokeWidth=2;jumpStyle=arc;jumpSize=10;spacing=15;labelBackgroundColor=white;labelBorderColor=none" edge="1" parent="1" source="NextApp" target="ThemeProvider">
                  <mxGeometry relative="1" as="geometry"/>
                </mxCell>
                <mxCell id="edge-L_NextApp_ThemeProvider_4_label" value="Applies Theme" style="edgeLabel;html=1;align=center;verticalAlign=middle;resizable=0;points=[];" vertex="1" connectable="0" parent="edge-L_NextApp_ThemeProvider_4">
                  <mxGeometry x="-0.2" y="10" relative="1" as="geometry">
                    <mxPoint as="offset"/>
                  </mxGeometry>
                </mxCell>
<mxCell id="edge-L_NextApp_ClientLayout_5" style="edgeStyle=orthogonalEdgeStyle;rounded=1;orthogonalLoop=1;jettySize=auto;html=1;strokeColor=#808080;strokeWidth=2;jumpStyle=arc;jumpSize=10;spacing=15;labelBackgroundColor=white;labelBorderColor=none" edge="1" parent="1" source="NextApp" target="ClientLayout">
                  <mxGeometry relative="1" as="geometry"/>
                </mxCell>
                <mxCell id="edge-L_NextApp_ClientLayout_5_label" value="Renders" style="edgeLabel;html=1;align=center;verticalAlign=middle;resizable=0;points=[];" vertex="1" connectable="0" parent="edge-L_NextApp_ClientLayout_5">
                  <mxGeometry x="-0.2" y="10" relative="1" as="geometry">
                    <mxPoint as="offset"/>
                  </mxGeometry>
                </mxCell>
<mxCell id="edge-L_ClientLayout_MainNav_6" style="edgeStyle=orthogonalEdgeStyle;rounded=1;orthogonalLoop=1;jettySize=auto;html=1;strokeColor=#808080;strokeWidth=2;jumpStyle=arc;jumpSize=10;spacing=15;labelBackgroundColor=white;labelBorderColor=none" edge="1" parent="1" source="ClientLayout" target="MainNav">
                  <mxGeometry relative="1" as="geometry"/>
                </mxCell>
                <mxCell id="edge-L_ClientLayout_MainNav_6_label" value="Includes" style="edgeLabel;html=1;align=center;verticalAlign=middle;resizable=0;points=[];" vertex="1" connectable="0" parent="edge-L_ClientLayout_MainNav_6">
                  <mxGeometry x="-0.2" y="10" relative="1" as="geometry">
                    <mxPoint as="offset"/>
                  </mxGeometry>
                </mxCell>
<mxCell id="edge-L_ClientLayout_Sidebar_7" style="edgeStyle=orthogonalEdgeStyle;rounded=1;orthogonalLoop=1;jettySize=auto;html=1;strokeColor=#808080;strokeWidth=2;jumpStyle=arc;jumpSize=10;spacing=15;labelBackgroundColor=white;labelBorderColor=none" edge="1" parent="1" source="ClientLayout" target="Sidebar">
                  <mxGeometry relative="1" as="geometry"/>
                </mxCell>
                <mxCell id="edge-L_ClientLayout_Sidebar_7_label" value="Uses" style="edgeLabel;html=1;align=center;verticalAlign=middle;resizable=0;points=[];" vertex="1" connectable="0" parent="edge-L_ClientLayout_Sidebar_7">
                  <mxGeometry x="-0.2" y="10" relative="1" as="geometry">
                    <mxPoint as="offset"/>
                  </mxGeometry>
                </mxCell>
<mxCell id="edge-L_MainNav_Button_8" style="edgeStyle=orthogonalEdgeStyle;rounded=1;orthogonalLoop=1;jettySize=auto;html=1;strokeColor=#808080;strokeWidth=2;jumpStyle=arc;jumpSize=10;spacing=15;labelBackgroundColor=white;labelBorderColor=none" edge="1" parent="1" source="MainNav" target="Button">
                  <mxGeometry relative="1" as="geometry"/>
                </mxCell>
                <mxCell id="edge-L_MainNav_Button_8_label" value="Uses" style="edgeLabel;html=1;align=center;verticalAlign=middle;resizable=0;points=[];" vertex="1" connectable="0" parent="edge-L_MainNav_Button_8">
                  <mxGeometry x="-0.2" y="10" relative="1" as="geometry">
                    <mxPoint as="offset"/>
                  </mxGeometry>
                </mxCell>
<mxCell id="edge-L_DataTable_Table_9" style="edgeStyle=orthogonalEdgeStyle;rounded=1;orthogonalLoop=1;jettySize=auto;html=1;strokeColor=#808080;strokeWidth=2;jumpStyle=arc;jumpSize=10;spacing=15;labelBackgroundColor=white;labelBorderColor=none" edge="1" parent="1" source="DataTable" target="Table">
                  <mxGeometry relative="1" as="geometry"/>
                </mxCell>
                <mxCell id="edge-L_DataTable_Table_9_label" value="Uses" style="edgeLabel;html=1;align=center;verticalAlign=middle;resizable=0;points=[];" vertex="1" connectable="0" parent="edge-L_DataTable_Table_9">
                  <mxGeometry x="-0.2" y="10" relative="1" as="geometry">
                    <mxPoint as="offset"/>
                  </mxGeometry>
                </mxCell>
<mxCell id="edge-L_DataTable_Input_10" style="edgeStyle=orthogonalEdgeStyle;rounded=1;orthogonalLoop=1;jettySize=auto;html=1;strokeColor=#808080;strokeWidth=2;jumpStyle=arc;jumpSize=10;spacing=15;labelBackgroundColor=white;labelBorderColor=none" edge="1" parent="1" source="DataTable" target="Input">
                  <mxGeometry relative="1" as="geometry"/>
                </mxCell>
                <mxCell id="edge-L_DataTable_Input_10_label" value="Uses" style="edgeLabel;html=1;align=center;verticalAlign=middle;resizable=0;points=[];" vertex="1" connectable="0" parent="edge-L_DataTable_Input_10">
                  <mxGeometry x="-0.2" y="10" relative="1" as="geometry">
                    <mxPoint as="offset"/>
                  </mxGeometry>
                </mxCell>
<mxCell id="edge-L_SalesReport_DataTable_11" style="edgeStyle=orthogonalEdgeStyle;rounded=1;orthogonalLoop=1;jettySize=auto;html=1;strokeColor=#808080;strokeWidth=2;jumpStyle=arc;jumpSize=10;spacing=15;labelBackgroundColor=white;labelBorderColor=none" edge="1" parent="1" source="SalesReport" target="DataTable">
                  <mxGeometry relative="1" as="geometry"/>
                </mxCell>
                <mxCell id="edge-L_SalesReport_DataTable_11_label" value="Use" style="edgeLabel;html=1;align=center;verticalAlign=middle;resizable=0;points=[];" vertex="1" connectable="0" parent="edge-L_SalesReport_DataTable_11">
                  <mxGeometry x="-0.2" y="10" relative="1" as="geometry">
                    <mxPoint as="offset"/>
                  </mxGeometry>
                </mxCell>
<mxCell id="edge-L_SalesReturns_DataTable_12" style="edgeStyle=orthogonalEdgeStyle;rounded=1;orthogonalLoop=1;jettySize=auto;html=1;strokeColor=#808080;strokeWidth=2;jumpStyle=arc;jumpSize=10;spacing=15;labelBackgroundColor=white;labelBorderColor=none" edge="1" parent="1" source="SalesReturns" target="DataTable">
                  <mxGeometry relative="1" as="geometry"/>
                </mxCell>
                <mxCell id="edge-L_SalesReturns_DataTable_12_label" value="Use" style="edgeLabel;html=1;align=center;verticalAlign=middle;resizable=0;points=[];" vertex="1" connectable="0" parent="edge-L_SalesReturns_DataTable_12">
                  <mxGeometry x="-0.2" y="10" relative="1" as="geometry">
                    <mxPoint as="offset"/>
                  </mxGeometry>
                </mxCell>
<mxCell id="edge-L_Purchases_DataTable_13" style="edgeStyle=orthogonalEdgeStyle;rounded=1;orthogonalLoop=1;jettySize=auto;html=1;strokeColor=#808080;strokeWidth=2;jumpStyle=arc;jumpSize=10;spacing=15;labelBackgroundColor=white;labelBorderColor=none" edge="1" parent="1" source="Purchases" target="DataTable">
                  <mxGeometry relative="1" as="geometry"/>
                </mxCell>
                <mxCell id="edge-L_Purchases_DataTable_13_label" value="Use" style="edgeLabel;html=1;align=center;verticalAlign=middle;resizable=0;points=[];" vertex="1" connectable="0" parent="edge-L_Purchases_DataTable_13">
                  <mxGeometry x="-0.2" y="10" relative="1" as="geometry">
                    <mxPoint as="offset"/>
                  </mxGeometry>
                </mxCell>
<mxCell id="edge-L_PurchaseReturns_DataTable_14" style="edgeStyle=orthogonalEdgeStyle;rounded=1;orthogonalLoop=1;jettySize=auto;html=1;strokeColor=#808080;strokeWidth=2;jumpStyle=arc;jumpSize=10;spacing=15;labelBackgroundColor=white;labelBorderColor=none" edge="1" parent="1" source="PurchaseReturns" target="DataTable">
                  <mxGeometry relative="1" as="geometry"/>
                </mxCell>
                <mxCell id="edge-L_PurchaseReturns_DataTable_14_label" value="Use" style="edgeLabel;html=1;align=center;verticalAlign=middle;resizable=0;points=[];" vertex="1" connectable="0" parent="edge-L_PurchaseReturns_DataTable_14">
                  <mxGeometry x="-0.2" y="10" relative="1" as="geometry">
                    <mxPoint as="offset"/>
                  </mxGeometry>
                </mxCell>
<mxCell id="edge-L_Inventory_DataTable_15" style="edgeStyle=orthogonalEdgeStyle;rounded=1;orthogonalLoop=1;jettySize=auto;html=1;strokeColor=#808080;strokeWidth=2;jumpStyle=arc;jumpSize=10;spacing=15;labelBackgroundColor=white;labelBorderColor=none" edge="1" parent="1" source="Inventory" target="DataTable">
                  <mxGeometry relative="1" as="geometry"/>
                </mxCell>
                <mxCell id="edge-L_Inventory_DataTable_15_label" value="Use" style="edgeLabel;html=1;align=center;verticalAlign=middle;resizable=0;points=[];" vertex="1" connectable="0" parent="edge-L_Inventory_DataTable_15">
                  <mxGeometry x="-0.2" y="10" relative="1" as="geometry">
                    <mxPoint as="offset"/>
                  </mxGeometry>
                </mxCell>
<mxCell id="edge-L_Kardex_DataTable_16" style="edgeStyle=orthogonalEdgeStyle;rounded=1;orthogonalLoop=1;jettySize=auto;html=1;strokeColor=#808080;strokeWidth=2;jumpStyle=arc;jumpSize=10;spacing=15;labelBackgroundColor=white;labelBorderColor=none" edge="1" parent="1" source="Kardex" target="DataTable">
                  <mxGeometry relative="1" as="geometry"/>
                </mxCell>
                <mxCell id="edge-L_Kardex_DataTable_16_label" value="Use" style="edgeLabel;html=1;align=center;verticalAlign=middle;resizable=0;points=[];" vertex="1" connectable="0" parent="edge-L_Kardex_DataTable_16">
                  <mxGeometry x="-0.2" y="10" relative="1" as="geometry">
                    <mxPoint as="offset"/>
                  </mxGeometry>
                </mxCell>
<mxCell id="edge-L_Adjustments_DataTable_17" style="edgeStyle=orthogonalEdgeStyle;rounded=1;orthogonalLoop=1;jettySize=auto;html=1;strokeColor=#808080;strokeWidth=2;jumpStyle=arc;jumpSize=10;spacing=15;labelBackgroundColor=white;labelBorderColor=none" edge="1" parent="1" source="Adjustments" target="DataTable">
                  <mxGeometry relative="1" as="geometry"/>
                </mxCell>
                <mxCell id="edge-L_Adjustments_DataTable_17_label" value="Use" style="edgeLabel;html=1;align=center;verticalAlign=middle;resizable=0;points=[];" vertex="1" connectable="0" parent="edge-L_Adjustments_DataTable_17">
                  <mxGeometry x="-0.2" y="10" relative="1" as="geometry">
                    <mxPoint as="offset"/>
                  </mxGeometry>
                </mxCell>
<mxCell id="edge-L_Billing_DataTable_18" style="edgeStyle=orthogonalEdgeStyle;rounded=1;orthogonalLoop=1;jettySize=auto;html=1;strokeColor=#808080;strokeWidth=2;jumpStyle=arc;jumpSize=10;spacing=15;labelBackgroundColor=white;labelBorderColor=none" edge="1" parent="1" source="Billing" target="DataTable">
                  <mxGeometry relative="1" as="geometry"/>
                </mxCell>
                <mxCell id="edge-L_Billing_DataTable_18_label" value="Use" style="edgeLabel;html=1;align=center;verticalAlign=middle;resizable=0;points=[];" vertex="1" connectable="0" parent="edge-L_Billing_DataTable_18">
                  <mxGeometry x="-0.2" y="10" relative="1" as="geometry">
                    <mxPoint as="offset"/>
                  </mxGeometry>
                </mxCell>
<mxCell id="edge-L_Comparative_DataTable_19" style="edgeStyle=orthogonalEdgeStyle;rounded=1;orthogonalLoop=1;jettySize=auto;html=1;strokeColor=#808080;strokeWidth=2;jumpStyle=arc;jumpSize=10;spacing=15;labelBackgroundColor=white;labelBorderColor=none" edge="1" parent="1" source="Comparative" target="DataTable">
                  <mxGeometry relative="1" as="geometry"/>
                </mxCell>
                <mxCell id="edge-L_Comparative_DataTable_19_label" value="Use" style="edgeLabel;html=1;align=center;verticalAlign=middle;resizable=0;points=[];" vertex="1" connectable="0" parent="edge-L_Comparative_DataTable_19">
                  <mxGeometry x="-0.2" y="10" relative="1" as="geometry">
                    <mxPoint as="offset"/>
                  </mxGeometry>
                </mxCell>
<mxCell id="edge-L_SalesReport_DateRangePicker_20" style="edgeStyle=orthogonalEdgeStyle;rounded=1;orthogonalLoop=1;jettySize=auto;html=1;strokeColor=#808080;strokeWidth=2;jumpStyle=arc;jumpSize=10;spacing=15;labelBackgroundColor=white;labelBorderColor=none" edge="1" parent="1" source="SalesReport" target="DateRangePicker">
                  <mxGeometry relative="1" as="geometry"/>
                </mxCell>
                <mxCell id="edge-L_SalesReport_DateRangePicker_20_label" value="Use" style="edgeLabel;html=1;align=center;verticalAlign=middle;resizable=0;points=[];" vertex="1" connectable="0" parent="edge-L_SalesReport_DateRangePicker_20">
                  <mxGeometry x="-0.2" y="10" relative="1" as="geometry">
                    <mxPoint as="offset"/>
                  </mxGeometry>
                </mxCell>
<mxCell id="edge-L_SalesReturns_DateRangePicker_21" style="edgeStyle=orthogonalEdgeStyle;rounded=1;orthogonalLoop=1;jettySize=auto;html=1;strokeColor=#808080;strokeWidth=2;jumpStyle=arc;jumpSize=10;spacing=15;labelBackgroundColor=white;labelBorderColor=none" edge="1" parent="1" source="SalesReturns" target="DateRangePicker">
                  <mxGeometry relative="1" as="geometry"/>
                </mxCell>
                <mxCell id="edge-L_SalesReturns_DateRangePicker_21_label" value="Use" style="edgeLabel;html=1;align=center;verticalAlign=middle;resizable=0;points=[];" vertex="1" connectable="0" parent="edge-L_SalesReturns_DateRangePicker_21">
                  <mxGeometry x="-0.2" y="10" relative="1" as="geometry">
                    <mxPoint as="offset"/>
                  </mxGeometry>
                </mxCell>
<mxCell id="edge-L_Purchases_DateRangePicker_22" style="edgeStyle=orthogonalEdgeStyle;rounded=1;orthogonalLoop=1;jettySize=auto;html=1;strokeColor=#808080;strokeWidth=2;jumpStyle=arc;jumpSize=10;spacing=15;labelBackgroundColor=white;labelBorderColor=none" edge="1" parent="1" source="Purchases" target="DateRangePicker">
                  <mxGeometry relative="1" as="geometry"/>
                </mxCell>
                <mxCell id="edge-L_Purchases_DateRangePicker_22_label" value="Use" style="edgeLabel;html=1;align=center;verticalAlign=middle;resizable=0;points=[];" vertex="1" connectable="0" parent="edge-L_Purchases_DateRangePicker_22">
                  <mxGeometry x="-0.2" y="10" relative="1" as="geometry">
                    <mxPoint as="offset"/>
                  </mxGeometry>
                </mxCell>
<mxCell id="edge-L_PurchaseReturns_DateRangePicker_23" style="edgeStyle=orthogonalEdgeStyle;rounded=1;orthogonalLoop=1;jettySize=auto;html=1;strokeColor=#808080;strokeWidth=2;jumpStyle=arc;jumpSize=10;spacing=15;labelBackgroundColor=white;labelBorderColor=none" edge="1" parent="1" source="PurchaseReturns" target="DateRangePicker">
                  <mxGeometry relative="1" as="geometry"/>
                </mxCell>
                <mxCell id="edge-L_PurchaseReturns_DateRangePicker_23_label" value="Use" style="edgeLabel;html=1;align=center;verticalAlign=middle;resizable=0;points=[];" vertex="1" connectable="0" parent="edge-L_PurchaseReturns_DateRangePicker_23">
                  <mxGeometry x="-0.2" y="10" relative="1" as="geometry">
                    <mxPoint as="offset"/>
                  </mxGeometry>
                </mxCell>
<mxCell id="edge-L_Inventory_DateRangePicker_24" style="edgeStyle=orthogonalEdgeStyle;rounded=1;orthogonalLoop=1;jettySize=auto;html=1;strokeColor=#808080;strokeWidth=2;jumpStyle=arc;jumpSize=10;spacing=15;labelBackgroundColor=white;labelBorderColor=none" edge="1" parent="1" source="Inventory" target="DateRangePicker">
                  <mxGeometry relative="1" as="geometry"/>
                </mxCell>
                <mxCell id="edge-L_Inventory_DateRangePicker_24_label" value="Use" style="edgeLabel;html=1;align=center;verticalAlign=middle;resizable=0;points=[];" vertex="1" connectable="0" parent="edge-L_Inventory_DateRangePicker_24">
                  <mxGeometry x="-0.2" y="10" relative="1" as="geometry">
                    <mxPoint as="offset"/>
                  </mxGeometry>
                </mxCell>
<mxCell id="edge-L_Kardex_DateRangePicker_25" style="edgeStyle=orthogonalEdgeStyle;rounded=1;orthogonalLoop=1;jettySize=auto;html=1;strokeColor=#808080;strokeWidth=2;jumpStyle=arc;jumpSize=10;spacing=15;labelBackgroundColor=white;labelBorderColor=none" edge="1" parent="1" source="Kardex" target="DateRangePicker">
                  <mxGeometry relative="1" as="geometry"/>
                </mxCell>
                <mxCell id="edge-L_Kardex_DateRangePicker_25_label" value="Use" style="edgeLabel;html=1;align=center;verticalAlign=middle;resizable=0;points=[];" vertex="1" connectable="0" parent="edge-L_Kardex_DateRangePicker_25">
                  <mxGeometry x="-0.2" y="10" relative="1" as="geometry">
                    <mxPoint as="offset"/>
                  </mxGeometry>
                </mxCell>
<mxCell id="edge-L_Adjustments_DateRangePicker_26" style="edgeStyle=orthogonalEdgeStyle;rounded=1;orthogonalLoop=1;jettySize=auto;html=1;strokeColor=#808080;strokeWidth=2;jumpStyle=arc;jumpSize=10;spacing=15;labelBackgroundColor=white;labelBorderColor=none" edge="1" parent="1" source="Adjustments" target="DateRangePicker">
                  <mxGeometry relative="1" as="geometry"/>
                </mxCell>
                <mxCell id="edge-L_Adjustments_DateRangePicker_26_label" value="Use" style="edgeLabel;html=1;align=center;verticalAlign=middle;resizable=0;points=[];" vertex="1" connectable="0" parent="edge-L_Adjustments_DateRangePicker_26">
                  <mxGeometry x="-0.2" y="10" relative="1" as="geometry">
                    <mxPoint as="offset"/>
                  </mxGeometry>
                </mxCell>
<mxCell id="edge-L_Billing_DateRangePicker_27" style="edgeStyle=orthogonalEdgeStyle;rounded=1;orthogonalLoop=1;jettySize=auto;html=1;strokeColor=#808080;strokeWidth=2;jumpStyle=arc;jumpSize=10;spacing=15;labelBackgroundColor=white;labelBorderColor=none" edge="1" parent="1" source="Billing" target="DateRangePicker">
                  <mxGeometry relative="1" as="geometry"/>
                </mxCell>
                <mxCell id="edge-L_Billing_DateRangePicker_27_label" value="Use" style="edgeLabel;html=1;align=center;verticalAlign=middle;resizable=0;points=[];" vertex="1" connectable="0" parent="edge-L_Billing_DateRangePicker_27">
                  <mxGeometry x="-0.2" y="10" relative="1" as="geometry">
                    <mxPoint as="offset"/>
                  </mxGeometry>
                </mxCell>
<mxCell id="edge-L_Comparative_DateRangePicker_28" style="edgeStyle=orthogonalEdgeStyle;rounded=1;orthogonalLoop=1;jettySize=auto;html=1;strokeColor=#808080;strokeWidth=2;jumpStyle=arc;jumpSize=10;spacing=15;labelBackgroundColor=white;labelBorderColor=none" edge="1" parent="1" source="Comparative" target="DateRangePicker">
                  <mxGeometry relative="1" as="geometry"/>
                </mxCell>
                <mxCell id="edge-L_Comparative_DateRangePicker_28_label" value="Use" style="edgeLabel;html=1;align=center;verticalAlign=middle;resizable=0;points=[];" vertex="1" connectable="0" parent="edge-L_Comparative_DateRangePicker_28">
                  <mxGeometry x="-0.2" y="10" relative="1" as="geometry">
                    <mxPoint as="offset"/>
                  </mxGeometry>
                </mxCell>
<mxCell id="edge-L_SalesReport_SummaryCard_29" style="edgeStyle=orthogonalEdgeStyle;rounded=1;orthogonalLoop=1;jettySize=auto;html=1;strokeColor=#808080;strokeWidth=2;jumpStyle=arc;jumpSize=10;spacing=15;labelBackgroundColor=white;labelBorderColor=none" edge="1" parent="1" source="SalesReport" target="SummaryCard">
                  <mxGeometry relative="1" as="geometry"/>
                </mxCell>
                <mxCell id="edge-L_SalesReport_SummaryCard_29_label" value="Use" style="edgeLabel;html=1;align=center;verticalAlign=middle;resizable=0;points=[];" vertex="1" connectable="0" parent="edge-L_SalesReport_SummaryCard_29">
                  <mxGeometry x="-0.2" y="10" relative="1" as="geometry">
                    <mxPoint as="offset"/>
                  </mxGeometry>
                </mxCell>
<mxCell id="edge-L_SalesReturns_SummaryCard_30" style="edgeStyle=orthogonalEdgeStyle;rounded=1;orthogonalLoop=1;jettySize=auto;html=1;strokeColor=#808080;strokeWidth=2;jumpStyle=arc;jumpSize=10;spacing=15;labelBackgroundColor=white;labelBorderColor=none" edge="1" parent="1" source="SalesReturns" target="SummaryCard">
                  <mxGeometry relative="1" as="geometry"/>
                </mxCell>
                <mxCell id="edge-L_SalesReturns_SummaryCard_30_label" value="Use" style="edgeLabel;html=1;align=center;verticalAlign=middle;resizable=0;points=[];" vertex="1" connectable="0" parent="edge-L_SalesReturns_SummaryCard_30">
                  <mxGeometry x="-0.2" y="10" relative="1" as="geometry">
                    <mxPoint as="offset"/>
                  </mxGeometry>
                </mxCell>
<mxCell id="edge-L_Purchases_SummaryCard_31" style="edgeStyle=orthogonalEdgeStyle;rounded=1;orthogonalLoop=1;jettySize=auto;html=1;strokeColor=#808080;strokeWidth=2;jumpStyle=arc;jumpSize=10;spacing=15;labelBackgroundColor=white;labelBorderColor=none" edge="1" parent="1" source="Purchases" target="SummaryCard">
                  <mxGeometry relative="1" as="geometry"/>
                </mxCell>
                <mxCell id="edge-L_Purchases_SummaryCard_31_label" value="Use" style="edgeLabel;html=1;align=center;verticalAlign=middle;resizable=0;points=[];" vertex="1" connectable="0" parent="edge-L_Purchases_SummaryCard_31">
                  <mxGeometry x="-0.2" y="10" relative="1" as="geometry">
                    <mxPoint as="offset"/>
                  </mxGeometry>
                </mxCell>
<mxCell id="edge-L_PurchaseReturns_SummaryCard_32" style="edgeStyle=orthogonalEdgeStyle;rounded=1;orthogonalLoop=1;jettySize=auto;html=1;strokeColor=#808080;strokeWidth=2;jumpStyle=arc;jumpSize=10;spacing=15;labelBackgroundColor=white;labelBorderColor=none" edge="1" parent="1" source="PurchaseReturns" target="SummaryCard">
                  <mxGeometry relative="1" as="geometry"/>
                </mxCell>
                <mxCell id="edge-L_PurchaseReturns_SummaryCard_32_label" value="Use" style="edgeLabel;html=1;align=center;verticalAlign=middle;resizable=0;points=[];" vertex="1" connectable="0" parent="edge-L_PurchaseReturns_SummaryCard_32">
                  <mxGeometry x="-0.2" y="10" relative="1" as="geometry">
                    <mxPoint as="offset"/>
                  </mxGeometry>
                </mxCell>
<mxCell id="edge-L_Inventory_SummaryCard_33" style="edgeStyle=orthogonalEdgeStyle;rounded=1;orthogonalLoop=1;jettySize=auto;html=1;strokeColor=#808080;strokeWidth=2;jumpStyle=arc;jumpSize=10;spacing=15;labelBackgroundColor=white;labelBorderColor=none" edge="1" parent="1" source="Inventory" target="SummaryCard">
                  <mxGeometry relative="1" as="geometry"/>
                </mxCell>
                <mxCell id="edge-L_Inventory_SummaryCard_33_label" value="Use" style="edgeLabel;html=1;align=center;verticalAlign=middle;resizable=0;points=[];" vertex="1" connectable="0" parent="edge-L_Inventory_SummaryCard_33">
                  <mxGeometry x="-0.2" y="10" relative="1" as="geometry">
                    <mxPoint as="offset"/>
                  </mxGeometry>
                </mxCell>
<mxCell id="edge-L_Kardex_SummaryCard_34" style="edgeStyle=orthogonalEdgeStyle;rounded=1;orthogonalLoop=1;jettySize=auto;html=1;strokeColor=#808080;strokeWidth=2;jumpStyle=arc;jumpSize=10;spacing=15;labelBackgroundColor=white;labelBorderColor=none" edge="1" parent="1" source="Kardex" target="SummaryCard">
                  <mxGeometry relative="1" as="geometry"/>
                </mxCell>
                <mxCell id="edge-L_Kardex_SummaryCard_34_label" value="Use" style="edgeLabel;html=1;align=center;verticalAlign=middle;resizable=0;points=[];" vertex="1" connectable="0" parent="edge-L_Kardex_SummaryCard_34">
                  <mxGeometry x="-0.2" y="10" relative="1" as="geometry">
                    <mxPoint as="offset"/>
                  </mxGeometry>
                </mxCell>
<mxCell id="edge-L_Adjustments_SummaryCard_35" style="edgeStyle=orthogonalEdgeStyle;rounded=1;orthogonalLoop=1;jettySize=auto;html=1;strokeColor=#808080;strokeWidth=2;jumpStyle=arc;jumpSize=10;spacing=15;labelBackgroundColor=white;labelBorderColor=none" edge="1" parent="1" source="Adjustments" target="SummaryCard">
                  <mxGeometry relative="1" as="geometry"/>
                </mxCell>
                <mxCell id="edge-L_Adjustments_SummaryCard_35_label" value="Use" style="edgeLabel;html=1;align=center;verticalAlign=middle;resizable=0;points=[];" vertex="1" connectable="0" parent="edge-L_Adjustments_SummaryCard_35">
                  <mxGeometry x="-0.2" y="10" relative="1" as="geometry">
                    <mxPoint as="offset"/>
                  </mxGeometry>
                </mxCell>
<mxCell id="edge-L_Billing_SummaryCard_36" style="edgeStyle=orthogonalEdgeStyle;rounded=1;orthogonalLoop=1;jettySize=auto;html=1;strokeColor=#808080;strokeWidth=2;jumpStyle=arc;jumpSize=10;spacing=15;labelBackgroundColor=white;labelBorderColor=none" edge="1" parent="1" source="Billing" target="SummaryCard">
                  <mxGeometry relative="1" as="geometry"/>
                </mxCell>
                <mxCell id="edge-L_Billing_SummaryCard_36_label" value="Use" style="edgeLabel;html=1;align=center;verticalAlign=middle;resizable=0;points=[];" vertex="1" connectable="0" parent="edge-L_Billing_SummaryCard_36">
                  <mxGeometry x="-0.2" y="10" relative="1" as="geometry">
                    <mxPoint as="offset"/>
                  </mxGeometry>
                </mxCell>
<mxCell id="edge-L_Comparative_SummaryCard_37" style="edgeStyle=orthogonalEdgeStyle;rounded=1;orthogonalLoop=1;jettySize=auto;html=1;strokeColor=#808080;strokeWidth=2;jumpStyle=arc;jumpSize=10;spacing=15;labelBackgroundColor=white;labelBorderColor=none" edge="1" parent="1" source="Comparative" target="SummaryCard">
                  <mxGeometry relative="1" as="geometry"/>
                </mxCell>
                <mxCell id="edge-L_Comparative_SummaryCard_37_label" value="Use" style="edgeLabel;html=1;align=center;verticalAlign=middle;resizable=0;points=[];" vertex="1" connectable="0" parent="edge-L_Comparative_SummaryCard_37">
                  <mxGeometry x="-0.2" y="10" relative="1" as="geometry">
                    <mxPoint as="offset"/>
                  </mxGeometry>
                </mxCell>
<mxCell id="edge-L_SalesReport_Forms_38" style="edgeStyle=orthogonalEdgeStyle;rounded=1;orthogonalLoop=1;jettySize=auto;html=1;strokeColor=#808080;strokeWidth=2;jumpStyle=arc;jumpSize=10;spacing=15;labelBackgroundColor=white;labelBorderColor=none" edge="1" parent="1" source="SalesReport" target="Forms">
                  <mxGeometry relative="1" as="geometry"/>
                </mxCell>
                <mxCell id="edge-L_SalesReport_Forms_38_label" value="Use" style="edgeLabel;html=1;align=center;verticalAlign=middle;resizable=0;points=[];" vertex="1" connectable="0" parent="edge-L_SalesReport_Forms_38">
                  <mxGeometry x="-0.2" y="10" relative="1" as="geometry">
                    <mxPoint as="offset"/>
                  </mxGeometry>
                </mxCell>
<mxCell id="edge-L_Inventory_Forms_39" style="edgeStyle=orthogonalEdgeStyle;rounded=1;orthogonalLoop=1;jettySize=auto;html=1;strokeColor=#808080;strokeWidth=2;jumpStyle=arc;jumpSize=10;spacing=15;labelBackgroundColor=white;labelBorderColor=none" edge="1" parent="1" source="Inventory" target="Forms">
                  <mxGeometry relative="1" as="geometry"/>
                </mxCell>
                <mxCell id="edge-L_Inventory_Forms_39_label" value="Use" style="edgeLabel;html=1;align=center;verticalAlign=middle;resizable=0;points=[];" vertex="1" connectable="0" parent="edge-L_Inventory_Forms_39">
                  <mxGeometry x="-0.2" y="10" relative="1" as="geometry">
                    <mxPoint as="offset"/>
                  </mxGeometry>
                </mxCell>
<mxCell id="edge-L_Billing_Forms_40" style="edgeStyle=orthogonalEdgeStyle;rounded=1;orthogonalLoop=1;jettySize=auto;html=1;strokeColor=#808080;strokeWidth=2;jumpStyle=arc;jumpSize=10;spacing=15;labelBackgroundColor=white;labelBorderColor=none" edge="1" parent="1" source="Billing" target="Forms">
                  <mxGeometry relative="1" as="geometry"/>
                </mxCell>
                <mxCell id="edge-L_Billing_Forms_40_label" value="Use" style="edgeLabel;html=1;align=center;verticalAlign=middle;resizable=0;points=[];" vertex="1" connectable="0" parent="edge-L_Billing_Forms_40">
                  <mxGeometry x="-0.2" y="10" relative="1" as="geometry">
                    <mxPoint as="offset"/>
                  </mxGeometry>
                </mxCell>
            </root>
          </mxGraphModel>
        </diagram>
      </mxfile>